<?xml version="1.0" standalone="no"?>
<!DOCTYPE svg PUBLIC "-//W3C//DTD SVG 20010904//EN"
 "http://www.w3.org/TR/2001/REC-SVG-20010904/DTD/svg10.dtd">
<svg version="1.0" xmlns="http://www.w3.org/2000/svg"
 width="512.000000pt" height="512.000000pt" viewBox="0 0 512.000000 512.000000"
 preserveAspectRatio="xMidYMid meet">

<g transform="translate(0.000000,512.000000) scale(0.100000,-0.100000)"
fill="#ffffff" stroke="none">
<path d="M2394 4590 c-63 -32 -84 -78 -84 -189 l0 -91 250 0 250 0 0 91 c0
112 -21 158 -85 189 -61 29 -271 29 -331 0z"/>
<path d="M1493 4181 c-61 -21 -124 -62 -159 -104 -27 -32 -74 -119 -74 -137 0
-7 412 -10 1300 -10 888 0 1300 3 1300 10 0 26 -55 116 -96 157 -25 24 -71 57
-102 71 l-57 27 -1030 2 c-971 2 -1033 1 -1082 -16z"/>
<path d="M1240 3712 c0 -142 19 -192 85 -229 l40 -23 1195 0 1195 0 39 23 c67
37 80 72 85 220 l3 127 -1321 0 -1321 0 0 -118z"/>
<path d="M1410 3353 c5 -211 143 -2619 151 -2645 20 -63 79 -130 144 -163 l59
-30 796 0 796 0 59 30 c65 33 124 100 144 163 8 25 148 2477 151 2650 0 1
-517 2 -1150 2 -632 0 -1150 -3 -1150 -7z m630 -243 c16 -16 20 -33 20 -82 0
-35 11 -475 25 -978 14 -503 25 -974 25 -1047 0 -125 -1 -133 -22 -147 -29
-21 -51 -20 -78 2 l-21 17 -30 1075 c-15 591 -29 1090 -29 1108 0 39 30 72 65
72 14 0 34 -9 45 -20z m563 2 c16 -17 17 -107 15 -1132 l-3 -1114 -27 -16
c-25 -13 -31 -13 -55 0 l-28 16 -3 1114 c-2 1025 -1 1115 15 1132 9 10 28 18
43 18 15 0 34 -8 43 -18z m567 -2 c12 -12 20 -33 20 -52 0 -18 -14 -517 -29
-1108 l-29 -1074 -22 -18 c-28 -23 -52 -23 -80 0 -27 22 -28 -41 5 1192 14
509 25 951 25 983 0 65 22 97 65 97 14 0 34 -9 45 -20z"/>
</g>
</svg>
